# xmcd
# Track frame offsets:
# 150
# 14865
# 25551
# 40816
# 54137
# 66679
# 77463
# 93413
# 103686
# 119893
# 134657
# 149307
# 161647
# 176652
#
# Disc length: 2533 seconds
# Revision: 0
# Processed by: cddbd v1.4PL0 Copyright (c) Steve Scherf et al.
# Submitted via: VisiTrax 2.9.5.180 - For more info visit www.synapsa.com
#
DISCID=c709e30e
DTITLE=Jeff Eastwood - Sat it isen't so
DYEAR=1998
DGENRE=
TTITLE0=Say it isen't so
TTITLE1=Country living
TTITLE2=Pretending
TTITLE3=I can't believe you never said goodbye
TTITLE4=Hold me one time
TTITLE5=Dancing shoes
TTITLE6=You on my mind
TTITLE7=Painkiller
TTITLE8=Lyin' in my arms
TTITLE9=Cowboy blues
TTITLE10=No good in goodbye
TTITLE11=Lovin' arms
TTITLE12=This time
TTITLE13=Baby come home
EXTD=
EXTT0=
EXTT1=
EXTT2=
EXTT3=
EXTT4=
EXTT5=
EXTT6=
EXTT7=
EXTT8=
EXTT9=
EXTT10=
EXTT11=
EXTT12=
EXTT13=
PLAYORDER=
